<svg width="256" height="256" viewBox="0 0 256 256" xmlns="http://www.w3.org/2000/svg">
  <rect width="256" height="256" fill="#F37626"/>
  <path d="M128 26.5C91.3 26.5 60.6 37.9 46.1 56.4C44.2 58.6 44.3 61.9 46.5 63.8C48.6 65.8 51.9 65.6 53.9 63.5C67.2 48.9 95.6 39.1 128 39.1C160.4 39.1 188.8 48.9 202.1 63.5C204.1 65.6 207.4 65.8 209.5 63.8C211.7 61.9 211.8 58.6 209.9 56.4C195.4 37.9 164.7 26.5 128 26.5Z" fill="#FFFFFF"/>
  <path d="M209.9 192.6C195.4 211.1 164.7 222.5 128 222.5C91.3 222.5 60.6 211.1 46.1 192.6C44.2 190.4 44.3 187.1 46.5 185.2C48.6 183.2 51.9 183.4 53.9 185.5C67.2 200.1 95.6 209.9 128 209.9C160.4 209.9 188.8 200.1 202.1 185.5C204.1 183.4 207.4 183.2 209.5 185.2C211.7 187.1 211.8 190.4 209.9 192.6Z" fill="#FFFFFF"/>
  <path d="M204.6 67.8C205.3 68.6 205.4 69.8 204.6 70.6C201.6 74.1 191.4 79.4 178.5 82.6C165.8 85.8 151.6 86.7 139.1 85.5C125.9 84.3 112.6 80.7 104.3 74.7C103.4 74 103.2 72.6 104 71.7C104.7 70.9 106.1 70.7 107 71.5C114.7 76.9 127.2 80.2 139.8 81.4C151.7 82.6 164.4 81.7 176.3 78.8C187.8 76 197.6 70.8 200.3 67.8C201.2 67 202.6 67.1 203.4 67.9C204.2 68.7 204.3 70.1 203.5 70.9C201.3 73.2 192.8 78.4 182 81.2C171.3 83.9 158.5 84.7 145.8 83.6C132.5 82.4 118.9 78.9 110.4 73C109.5 72.2 109.4 70.8 110.2 69.9C110.9 69.1 112.4 68.9 113.3 69.7C121.4 75.4 133.7 78.8 145.9 80C157.2 81.1 169.3 80.3 180.3 77.5C191 74.8 199.1 69.6 200.9 67.4C201.6 66.5 203 66.4 203.8 67.2C204.5 68 204.6 69.2 204.6 69.2Z" fill="#FFFFFF"/>
</svg>
