<svg width="256" height="256" viewBox="0 0 256 256" fill="none" xmlns="http://www.w3.org/2000/svg">
  <rect width="256" height="256" fill="#D00000"/>
  <path d="M70.9 130.9L94.6 107.2L70.9 83.5L57.5 97.2L71.6 111.3L57.5 125.4L70.9 139.1V130.9ZM114.3 130.9V83.5H130.6V130.9H114.3ZM141.4 83.5V130.9H157.7L173.3 114.4L157.7 97.9H141.4V83.5ZM164.9 125.4L179 111.3L164.9 97.2L151.8 111.3L165.9 125.4L151.8 139.1L164.9 130.9V125.4ZM97.5 107.2L123.2 83.5L136.6 97.2L110.9 121.3L136.6 145.4L123.2 159.1L97.5 135.4V130.9L121.6 107.2H97.5Z" fill="white"/>
</svg>
