<svg width="256" height="256" viewBox="0 0 256 256" fill="none" xmlns="http://www.w3.org/2000/svg">
  <rect width="256" height="256" fill="#11557C"/>
  <path d="M128 39C86.7 39 52 73.7 52 115C52 156.3 86.7 191 128 191C169.3 191 204 156.3 204 115C204 73.7 169.3 39 128 39ZM128 49C165.2 49 196 79.8 196 117C196 154.2 165.2 185 128 185C90.8 185 60 154.2 60 117C60 79.8 90.8 49 128 49ZM108 67.5C108 64.4 110.4 62 113.5 62H128.5C131.6 62 134 64.4 134 67.5V119.2L142.6 115.3C144.1 114.6 145.8 115.1 146.5 116.6C147.2 118.1 146.7 119.8 145.2 120.5L134.3 125.4C133.8 125.6 133.3 125.7 132.8 125.7C131.4 125.7 130 124.9 129.4 123.5L120.9 102.8V164.5C120.9 167.6 118.5 170 115.4 170C112.3 170 109.9 167.6 109.9 164.5V67.5H108Z" fill="white"/>
</svg>
