<svg width="256" height="256" viewBox="0 0 256 256" fill="none" xmlns="http://www.w3.org/2000/svg">
  <rect width="256" height="256" fill="#0194E2"/>
  <path d="M137.001 77.9978C126.734 77.9978 118.000 86.7315 118.000 97.0003C118.000 107.269 126.734 116.003 137.001 116.003C147.268 116.003 156.003 107.269 156.003 97.0003C156.003 86.7315 147.268 77.9978 137.001 77.9978ZM137.001 107.003C131.477 107.003 127.001 102.527 127.001 97.0003C127.001 91.4736 131.477 87.0003 137.001 87.0003C142.524 87.0003 147.001 91.4736 147.001 97.0003C147.001 102.527 142.524 107.003 137.001 107.003ZM72.998 145.999C62.7316 145.999 54.000 154.732 54.000 165.001C54.000 175.27 62.7316 184.003 72.998 184.003C83.2655 184.003 92.0003 175.27 92.0003 165.001C92.0003 154.732 83.2655 145.999 72.998 145.999ZM72.998 175.003C67.4734 175.003 63.0003 170.528 63.0003 165.001C63.0003 159.474 67.4734 155.001 72.998 155.001C78.5231 155.001 83.001 159.474 83.001 165.001C83.001 170.528 78.5231 175.003 72.998 175.003ZM184 125.5C184 114.06 177.453 104.224 168 98.2413V74.0003H158V98.2413C148.547 104.224 142 114.06 142 125.5C142 136.94 148.547 146.776 158 152.759V177H168V152.759C177.453 146.776 184 136.94 184 125.5ZM158 146.999C150.268 146.999 144 140.731 144 133C144 125.268 150.268 118.999 158 118.999C165.732 118.999 172 125.268 172 133C172 140.731 165.732 146.999 158 146.999Z" fill="white"/>
</svg>
