<svg width="256" height="256" viewBox="0 0 256 256" fill="none" xmlns="http://www.w3.org/2000/svg">
  <rect width="256" height="256" fill="#4B8BBE"/>
  <path d="M128 0C57.307 0 0 57.307 0 128C0 198.693 57.307 256 128 256C198.693 256 256 198.693 256 128C256 57.307 198.693 0 128 0ZM168 184H88C76.9543 184 68 175.046 68 164V92C68 80.9543 76.9543 72 88 72H168C179.046 72 188 80.9543 188 92V164C188 175.046 179.046 184 168 184Z" fill="white"/>
  <path d="M152 104C148.686 104 146 106.686 146 110C146 113.314 148.686 116 152 116C155.314 116 158 113.314 158 110C158 106.686 155.314 104 152 104ZM112 104C108.686 104 106 106.686 106 110C106 113.314 108.686 116 112 116C115.314 116 118 113.314 118 110C118 106.686 115.314 104 112 104ZM132 144C128.686 144 126 146.686 126 150C126 153.314 128.686 156 132 156C135.314 156 138 153.314 138 150C138 146.686 135.314 144 132 144ZM128 0C57.307 0 0 57.307 0 128C0 198.693 57.307 256 128 256C198.693 256 256 198.693 256 128C256 57.307 198.693 0 128 0ZM168 184H88C76.9543 184 68 175.046 68 164V92C68 80.9543 76.9543 72 88 72H168C179.046 72 188 80.9543 188 92V164C188 175.046 179.046 184 168 184Z" fill="none"/>
</svg>
