<svg width="256" height="256" viewBox="0 0 256 256" fill="none" xmlns="http://www.w3.org/2000/svg">
  <rect width="256" height="256" fill="#F2C811"/>
  <path d="M123.2 32.8H77.6C71.5376 32.8 66.4 37.9376 66.4 44V212C66.4 218.062 71.5376 223.2 77.6 223.2H123.2C129.263 223.2 134.4 218.062 134.4 212V44C134.4 37.9376 129.263 32.8 123.2 32.8ZM192.8 88H147.2C141.138 88 136 93.1376 136 99.2V212C136 218.062 141.138 223.2 147.2 223.2H192.8C198.862 223.2 204 218.062 204 212V99.2C204 93.1376 198.862 88 192.8 88ZM63.2 144H17.6C11.5376 144 6.4 149.138 6.4 155.2V212C6.4 218.062 11.5376 223.2 17.6 223.2H63.2C69.2624 223.2 74.4 218.062 74.4 212V155.2C74.4 149.138 69.2624 144 63.2 144ZM252.8 0H207.2C201.138 0 196 5.1376 196 11.2V212C196 218.062 201.138 223.2 207.2 223.2H252.8C258.862 223.2 264 218.062 264 212V11.2C264 5.1376 258.862 0 252.8 0Z" fill="white"/>
</svg>
