<svg width="256" height="256" viewBox="0 0 256 256" fill="none" xmlns="http://www.w3.org/2000/svg">
  <rect width="256" height="256" fill="#4C7BD8"/>
  <path d="M128 0C57.307 0 0 57.307 0 128C0 198.693 57.307 256 128 256C198.693 256 256 198.693 256 128C256 57.307 198.693 0 128 0ZM140.8 100.8C136.533 100.8 133.2 97.4667 133.2 93.2C133.2 88.9333 136.533 85.6 140.8 85.6C145.067 85.6 148.4 88.9333 148.4 93.2C148.4 97.4667 145.067 100.8 140.8 100.8ZM110.4 100.8C106.133 100.8 102.8 97.4667 102.8 93.2C102.8 88.9333 106.133 85.6 110.4 85.6C114.667 85.6 118 88.9333 118 93.2C118 97.4667 114.667 100.8 110.4 100.8ZM140.8 131.2C136.533 131.2 133.2 127.867 133.2 123.6C133.2 119.333 136.533 116 140.8 116C145.067 116 148.4 119.333 148.4 123.6C148.4 127.867 145.067 131.2 140.8 131.2ZM110.4 131.2C106.133 131.2 102.8 127.867 102.8 123.6C102.8 119.333 106.133 116 110.4 116C114.667 116 118 119.333 118 123.6C118 127.867 114.667 131.2 110.4 131.2ZM87.2 131.2C82.9333 131.2 79.6 127.867 79.6 123.6C79.6 119.333 82.9333 116 87.2 116C91.4667 116 94.8 119.333 94.8 123.6C94.8 127.867 91.4667 131.2 87.2 131.2ZM87.2 161.6C82.9333 161.6 79.6 158.267 79.6 154C79.6 149.733 82.9333 146.4 87.2 146.4C91.4667 146.4 94.8 149.733 94.8 154C94.8 158.267 91.4667 161.6 87.2 161.6ZM110.4 161.6C106.133 161.6 102.8 158.267 102.8 154C102.8 149.733 106.133 146.4 110.4 146.4C114.667 146.4 118 149.733 118 154C118 158.267 114.667 161.6 110.4 161.6ZM140.8 161.6C136.533 161.6 133.2 158.267 133.2 154C133.2 149.733 136.533 146.4 140.8 146.4C145.067 146.4 148.4 149.733 148.4 154C148.4 158.267 145.067 161.6 140.8 161.6ZM170.4 131.2C166.133 131.2 162.8 127.867 162.8 123.6C162.8 119.333 166.133 116 170.4 116C174.667 116 178 119.333 178 123.6C178 127.867 174.667 131.2 170.4 131.2Z" fill="white"/>
</svg>
