<svg width="256" height="256" viewBox="0 0 256 256" fill="none" xmlns="http://www.w3.org/2000/svg">
  <rect width="256" height="256" fill="#09A3D5"/>
  <path d="M73.6 160c-8.37 0-16.64-1.28-24.42-3.75-15.94-5.08-29.34-14.9-39.14-28.36-9.79-13.47-14.9-29.57-14.9-46.7s5.11-33.23 14.9-46.7C29.56 18.9 42.96 9.08 58.9 4c15.93-5.08 33.23-5.08 49.16 0 15.94 5.08 29.34 14.9 39.14 28.36 9.79 13.47 14.9 29.57 14.9 46.7s-5.11 33.23-14.9 46.7c-9.8 13.46-23.2 23.28-39.14 28.36C90.24 158.72 82 160 73.6 160z" fill="#fff"/>
  <path d="M199.5 64.58c-6.67 0-13.34 1.03-19.76 3.06-12.9 4.12-23.8 12.08-31.75 22.93-7.95 10.85-12.08 23.79-12.08 37.74s4.13 26.88 12.08 37.74c7.95 10.85 18.85 18.8 31.75 22.93 6.42 2.03 13.09 3.06 19.76 3.06s13.34-1.03 19.76-3.06c12.9-4.12 23.8-12.08 31.75-22.93 7.95-10.85 12.08-23.79 12.08-37.74s-4.13-26.88-12.08-37.74c-7.95-10.85-18.85-18.8-31.75-22.93-6.42-2.03-13.09-3.06-19.76-3.06z" fill="#fff"/>
  <path d="M155 179.5c-9.33 0-18.63-1.43-27.5-4.28-22.13-7.05-40.76-20.64-54.52-38.75-13.75-18.1-20.64-39.73-20.64-63s6.89-44.9 20.64-63C109.74 6.23 128.37-7.35 150.5 0c8.87 2.85 18.17 4.28 27.5 4.28 9.33 0 18.63-1.43 27.5-4.28 22.13-7.05 40.76-20.64 54.52-38.75 13.75-18.1 20.64-39.73 20.64-63s-6.89-44.9-20.64-63C213.76-7.35 195.13 6.23 173 0c-8.87-2.85-18.17-4.28-27.5-4.28-9.33 0-18.63 1.43-27.5 4.28C95.87 6.23 77.24 19.82 63.48 37.93c-13.75 18.1-20.64 39.73-20.64 63s6.89 44.9 20.64 63C82.25 180.67 100.88 194.26 123 201.3c8.87 2.85 18.17 4.28 27.5 4.28s18.63-1.43 27.5-4.28c22.13-7.05 40.76-20.64 54.52-38.75 13.75-18.1 20.64-39.73 20.64-63s-6.89-44.9-20.64-63C213.76-7.35 195.13 6.23 173 0c-8.87-2.85-18.17-4.28-27.5-4.28z" fill="#fff"/>
</svg>
