<svg width="256" height="256" viewBox="0 0 256 256" fill="none" xmlns="http://www.w3.org/2000/svg">
  <rect width="256" height="256" fill="#E97627"/>
  <path d="M145.88 136.333H165.12V148.22H145.88V136.333ZM115.84 77.44H135.08V89.3267H115.84V77.44ZM115.84 122.613H135.08V134.5H115.84V122.613ZM115.84 167.786H135.08V179.673H115.84V167.786ZM85.8 91.8533H105.04V103.74H85.8V91.8533ZM85.8 136.333H105.04V148.22H85.8V136.333ZM85.8 181.506H105.04V193.393H85.8V181.506ZM55.76 77.44H75V89.3267H55.76V77.44ZM55.76 122.613H75V134.5H55.76V122.613ZM55.76 167.786H75V179.673H55.76V167.786ZM176.04 105.04H195.28V116.927H176.04V105.04ZM176.04 150.213H195.28V162.1H176.04V150.213ZM176.04 195.386H195.28V207.273H176.04V195.386ZM206.28 77.44H225.52V89.3267H206.28V77.44ZM206.28 122.613H225.52V134.5H206.28V122.613ZM206.28 167.786H225.52V179.673H206.28V167.786Z" fill="white"/>
</svg>
