<svg width="256" height="256" viewBox="0 0 256 256" fill="none" xmlns="http://www.w3.org/2000/svg">
  <rect width="256" height="256" fill="#F7931E"/>
  <path d="M91.58 127.79c-8.083-10.676-21.057-16.21-34.598-14.264-10.406 1.396-19.648 6.194-26.205 13.804-4.81 5.368-7.707 12.186-8.416 19.604-1.277 13.137 5.367 25.591 17.057 31.802 11.6 6.171 26.843 5.543 38.563-1.513 9.823-5.855 15.937-15.939 16.362-28.006.245-6.677-1.896-13.182-5.548-18.85Zm13.76-18.848c-12.897 1.746-24.605 7.588-33.683 16.91 7.706 9.209 11.839 21.101 11.109 33.317-1.026 18.85-14.742 36.43-32.345 43.101-9.33 3.43-20.118 4.088-29.692 1.001-15.186-4.635-27.644-16.431-33.144-31.17-7.66-20.725-1.871-43.682 12.448-59.55 11.6-13.187 28.635-20.797 45.995-20.553 4.928.097 9.857.49 14.642 1.905 9.086 2.537 16.878 7.784 23.339 14.94 7.86-11.78 18.634-21.297 31.34-27.321 13.228-6.235 27.76-8.329 42.192-7.636 16.5.881 33.1 3.761 49.61 7.41 3.467.786 7.048 1.78 10.631 2.49 4.293.881 8.487-.196 12.153-2.931 3.861-2.686 6.265-6.743 6.925-11.484.49-3.238-.49-6.476-2.49-9.062-2.392-2.862-5.975-4.04-9.463-4.828-7.883-1.932-15.861-3.723-23.832-5.514-6.67-1.512-13.34-2.88-20.1-3.72-13.8-1.63-27.786-.343-41.06 3.81-12.3 3.82-23.831 10.177-33.632 18.84-7.515 6.743-14.056 14.88-19.057 23.982Z" fill="white"/>
</svg>
