<svg width="256" height="256" viewBox="0 0 256 256" fill="none" xmlns="http://www.w3.org/2000/svg">
  <rect width="256" height="256" fill="#EA7026"/>
  <path d="M128 0C57.307 0 0 57.307 0 128C0 198.693 57.307 256 128 256C198.693 256 256 198.693 256 128C256 57.307 198.693 0 128 0ZM133.3 50.6C143.178 50.6 151.2 58.6218 151.2 68.5C151.2 78.3782 143.178 86.4 133.3 86.4H85.6V205.2H62.8V86.4H14.6V62.8H62.8V50.6H133.3ZM200.1 186.4H139.5L124 128.5L149.4 62.8H174.1L166.5 82.6H181.6L166.7 123.8H145.6L139.5 142.7H155.4L163.8 165.4H195.2L200.1 186.4ZM133.3 61H85.6V86.4H133.3C136.5 86.4 139.3 84.4698 140.2 81.6C141.1 78.7302 139.4 75.3 136.5 74.4C133.6 73.5 130.2 75.2 129.3 78.1C128.4 81 130.5 83.4 133.3 83.4H142V70.5H133.3C130.2 70.5 127.4 68.4698 126.5 65.6C125.6 62.7302 127.3 59.3 130.2 58.4C133.1 57.5 136.5 59.2 137.4 62.1C138.3 65 136.2 67.4 133.3 67.4H124.9V80.4H133.3V61Z" fill="white"/>
</svg>
